<?xml version="1.0" encoding="iso-8859-1"?>
<!-- Uploaded to: SVG Repo, www.svgrepo.com, Generator: SVG Repo Mixer Tools -->
<svg version="1.1" id="Layer_1" xmlns="http://www.w3.org/2000/svg" xmlns:xlink="http://www.w3.org/1999/xlink" 
	 viewBox="0 0 511.997 511.997" xml:space="preserve">
<rect x="55.328" y="115.338" style="fill:#5D9CEC;" width="400.86" height="220.66"/>
<path style="fill:#434A54;" d="M447.996,101.339H63.999c-11.781,0-21.336,9.555-21.336,21.336v266.671H469.34V122.675
	C469.34,110.894,459.777,101.339,447.996,101.339z M447.996,378.658H63.999V122.675h383.997L447.996,378.658L447.996,378.658z"/>
<path style="fill:#656D78;" d="M511.996,389.346c0,11.78-9.562,21.312-21.344,21.312H21.335C9.546,410.658,0,401.127,0,389.346v-32
	h511.997v32H511.996z"/>
<rect x="51.518" y="335.998" style="fill:#434A54;" width="404.66" height="21.344"/>
<polygon style="opacity:0.1;fill:#FFFFFF;enable-background:new    ;" points="274.654,336.002 191.998,336.002 255.998,122.675 
	338.654,122.675 "/>
<path style="fill:#AAB2BC;" d="M303.998,357.346h-96h-10.664v10.656c0,5.906,4.773,10.656,10.664,10.656h96
	c5.891,0,10.656-4.75,10.656-10.656v-10.656H303.998z"/>
</svg>